<svg width="159" height="43" viewBox="0 0 159 43" fill="none" xmlns="http://www.w3.org/2000/svg">
<path d="M128.936 15.8474H118.903V20.5934H128.936V15.8474ZM120.945 17.6315H126.894V18.8064H120.945V17.6315Z" fill="#2B2C6B"/>
<path d="M131.314 20.7974H133.405V14.824H135.55V12.8125H117.246V14.824H131.314V20.7974Z" fill="#2B2C6B"/>
<path d="M50.8567 31.1785H64.7466C66.4825 31.1785 67.7603 30.1581 67.7603 28.4731V23.0391H50.8567V31.1785ZM53.0798 25.208H65.5401V27.8609C65.5401 28.7559 65.1083 29.0095 64.2623 29.0095H53.0798V25.208Z" fill="#2B2C6B"/>
<path d="M64.236 16.2526L65.6656 18.7772H52.9018V18.3195C52.9018 17.4245 53.3628 16.8385 54.0513 16.5091L59.4135 13.8825L58.4187 11.8418L52.8522 14.5967C51.1426 15.4363 50.4774 16.7132 50.4774 18.4244V21.0278H66.9376L67.559 22.1268L69.5253 21.1036L66.2053 15.3139L64.236 16.2526Z" fill="#2B2C6B"/>
<path d="M116.271 23.5755H131.311V27.5286C131.311 29.6713 129.802 30.1319 127.76 30.1319V32.225H128.09C131.538 32.225 133.399 30.6712 133.399 27.5315V23.5755H135.952V21.6106H116.268L116.271 23.5755Z" fill="#2B2C6B"/>
<path d="M105.608 19.0862H113.847V16.789H105.599V12.4773H103.248V16.789H95.1782V19.0862H103.134C102.393 23.1413 100.94 27.3014 94.5422 29.7239L95.6655 31.8171C101.722 29.5432 103.636 25.8816 104.54 22.3338C105.894 26.0507 108.692 29.9222 113.284 31.8171L114.509 29.6744C108.949 27.141 106.463 22.7652 105.608 19.0862Z" fill="#2B2C6B"/>
<path d="M128.936 24.5989H118.696V29.4994H128.936V24.5989ZM126.894 27.7095H120.744V26.383H126.894V27.7095Z" fill="#2B2C6B"/>
<path d="M148.454 19.0862H156.692V16.789H148.445V12.4773H146.073V16.789H138.027V19.0862H145.982C145.241 23.1413 143.786 27.3014 137.391 29.7239L138.514 31.8171C144.57 29.5432 146.484 25.8816 147.389 22.3338C148.742 26.0507 151.54 29.9222 156.132 31.8171L157.358 29.6744C151.791 27.141 149.308 22.7652 148.454 19.0862Z" fill="#2B2C6B"/>
<path d="M73.9277 24.5202C73.9277 27.5287 73.4667 29.3187 71.2699 30.2603L72.5215 31.9716C75.5352 30.8201 75.9699 27.864 75.9699 24.2403V24.0625H73.9277V24.5202Z" fill="#2B2C6B"/>
<path d="M71.7805 13.4479L74.8467 16.8675L76.3521 15.4623L73.2888 12.1448L71.7805 13.4479Z" fill="#2B2C6B"/>
<path d="M71.6783 18.7567L74.692 22.1501L76.25 20.7449L73.2129 17.4507L71.6783 18.7567Z" fill="#2B2C6B"/>
<path d="M79.6313 26.4849H90.8575V22.4531H77.4257V24.0886H88.7891V24.9019H77.8866L76.9939 29.6742L79.0098 30.0065L79.1732 29.0882H89.5651C89.2617 29.8083 88.1881 30.1931 85.1394 30.2369V32.1026H85.3669C89.9385 32.1026 91.7007 30.8257 91.7007 28.3244V27.3537H79.4825L79.6313 26.4849Z" fill="#2B2C6B"/>
<path d="M81.3175 14.3401V12.8445H83.4151V12.0195H85.0635V12.8445H87.1874V14.3401H81.3175Z" fill="#2B2C6B"/>
<path d="M84.9964 21.6078V20.7711H83.5114V21.6078H82.0439V19.2727H86.4639V21.6078H84.9964Z" fill="#2B2C6B"/>
<path d="M86.2743 17.1416H82.2366V18.6284H86.2743V17.1416Z" fill="#2B2C6B"/>
<path d="M86.2743 15.0017H82.2366V16.4914H86.2743V15.0017Z" fill="#2B2C6B"/>
<path d="M79.7859 20.0452H78.6423V19.9811C78.6423 19.7537 78.6423 19.4097 78.8582 19.1327L81.6035 15.8414L80.4628 14.9377L79.4212 16.1504H78.6394V15.751C78.6394 15.477 78.7152 15.2554 78.8815 15.063L80.4161 13.1244L79.255 12.209L77.4432 14.3954C77.1194 14.7802 76.9764 15.1825 76.9764 15.6985V17.404H78.3447L77.4928 18.3922C77.1165 18.8149 76.9473 19.3426 76.9473 20.1152V21.6107H81.3993V18.7071H79.7801V20.0452H79.7859Z" fill="#2B2C6B"/>
<path d="M89.9385 20.0452H88.792V19.9811C88.792 19.7537 88.792 19.4097 89.0079 19.1327L91.7532 15.8414L90.6125 14.9377L89.5738 16.1504H88.792V15.751C88.792 15.477 88.8707 15.2554 89.0312 15.063L90.5687 13.1244L89.4076 12.209L87.5958 14.3954C87.272 14.7802 87.129 15.1825 87.129 15.6985V17.404H88.4973L87.6483 18.3922C87.272 18.8149 87.1028 19.3426 87.1028 20.1152V21.6107H91.5548V18.7071H89.9356L89.9385 20.0452Z" fill="#2B2C6B"/>
<path d="M32.8765 29.0359L20.7341 22.0334V36.0412L32.8765 29.0359Z" fill="#D61C17"/>
<path d="M8.59473 29.0359L20.7342 36.0412V22.0334L8.59473 29.0359Z" fill="#E7340E"/>
<path d="M38.8018 22.0334L36.3803 13.0078L32.8765 15.0281L38.8018 22.0334Z" fill="#DC4B91"/>
<path d="M32.8765 29.0359L29.7694 37.665L36.3803 31.0562L32.8765 29.0359Z" fill="#444498"/>
<path d="M36.3803 31.0562L38.8018 22.0334L32.8765 29.0359L36.3803 31.0562Z" fill="#5C519F"/>
<path d="M20.7342 8.02563L8.59473 15.0281L20.7342 22.0334V8.02563Z" fill="#F19100"/>
<path d="M32.8765 29.0359V15.0281L20.7341 22.0334L32.8765 29.0359Z" fill="#E7340E"/>
<path d="M8.59473 15.0281V29.0359L20.7342 22.0334L8.59473 15.0281Z" fill="#EB6400"/>
<path d="M20.7341 40.0847L29.7665 37.668L20.7341 36.0413V40.0847Z" fill="#004C5A"/>
<path d="M32.8765 15.0281L36.3803 13.0049L29.7694 6.39893L32.8765 15.0281Z" fill="#F9BE00"/>
<path d="M32.8765 15.0281L20.7341 8.02563V22.0334L32.8765 15.0281Z" fill="#EB6400"/>
<path d="M5.0909 13.0049L2.66943 22.0334L8.59474 15.0281L5.0909 13.0049Z" fill="#F9BE00"/>
<path d="M20.7341 36.0383L11.7018 37.668L20.7341 40.0847V36.0383Z" fill="#008776"/>
<path d="M8.59478 15.0281L11.7018 6.39893L5.09094 13.0049L8.59478 15.0281Z" fill="#FDDA00"/>
<path d="M20.7341 3.97925L11.7018 6.39891L20.7341 8.02562V3.97925Z" fill="#FDDA00"/>
<path d="M2.66943 22.0334L5.0909 31.0562L8.59474 29.0359L2.66943 22.0334Z" fill="#F9BE00"/>
<path d="M8.59478 29.0359L5.09094 31.0562L11.7018 37.665L8.59478 29.0359Z" fill="#5DBDA9"/>
<path d="M29.7694 6.39891L20.7341 3.97925V8.02562L29.7694 6.39891Z" fill="#F9BE00"/>
<path d="M20.7341 36.0383L29.7665 37.668L32.8765 29.0359L20.7341 36.0383Z" fill="#5C519F"/>
<path d="M8.59473 29.0359L11.7018 37.665L20.7342 36.0412L8.59473 29.0359Z" fill="#00A474"/>
<path d="M32.8765 15.0281L29.7694 6.39893L20.7341 8.02564L32.8765 15.0281Z" fill="#F39E00"/>
<path d="M32.8765 15.0281V29.0359L38.8018 22.0334L32.8765 15.0281Z" fill="#CE156C"/>
<path d="M20.7342 8.02564L11.7018 6.39893L8.59473 15.0281L20.7342 8.02564Z" fill="#F9BE00"/>
<path d="M8.59474 29.0359V15.0281L2.66943 22.0334L8.59474 29.0359Z" fill="#F39E00"/>
</svg>
